<?xml version="1.0" encoding="utf-8"?>
<svg width="144" height="144" viewBox="0 0 144 144" fill="none" stroke="none" version="1.1" xmlns:xlink="http://www.w3.org/1999/xlink" xmlns="http://www.w3.org/2000/svg">
  <defs>
    <path id="path_1" d="M144 0L144 0L144 144L0 144L0 0L144 0Z" />
    <rect id="rect_2" x="0" y="0" width="144" height="144" />
    <clipPath id="clip_path_3">
      <use xlink:href="#rect_2" />
    </clipPath>
  </defs>
  <g id="G" opacity="1" clip-path="url(#clip_path_3)">
    <g>
      <use xlink:href="#path_1" style="fill:#FCDE9C;fill-rule:evenodd;mix-blend-mode:normal;" />
      <g>
        <g style="mix-blend-mode:normal;" transform="translate(28 0)">
          <path d="M72.098 52.038Q67.378 47.554 61.065 45.017Q54.752 42.48 48.262 42.48Q41.89 42.48 36.462 44.84Q31.034 47.2 26.904 51.33Q22.774 55.46 20.473 60.947Q18.172 66.434 18.172 72.806Q18.172 79.178 20.473 84.724Q22.774 90.27 26.904 94.459Q31.034 98.648 36.521 101.008Q42.008 103.368 48.38 103.368Q54.162 103.368 60.357 101.008Q66.552 98.648 71.508 94.636L79.532 104.312Q75.402 107.498 70.033 109.976Q64.664 112.454 58.882 113.811Q53.1 115.168 47.436 115.168Q38.232 115.168 30.385 111.923Q22.538 108.678 16.579 102.896Q10.62 97.114 7.316 89.385Q4.012 81.656 4.012 72.806Q4.012 63.956 7.375 56.345Q10.738 48.734 16.756 42.952Q22.774 37.17 30.857 33.984Q38.94 30.798 48.262 30.798Q54.162 30.798 59.885 32.214Q65.608 33.63 70.8 36.226Q75.992 38.822 80.004 42.48L72.098 52.038ZM67.378 73.868L79.532 73.868L79.532 104.312L67.378 104.312L67.378 73.868Z" style="fill:#141516;" />
        </g>
      </g>
    </g>
  </g>
</svg>